<?xml version="1.0" encoding="utf-8"?>
<!-- Generator: Adobe Illustrator 20.1.0, SVG Export Plug-In . SVG Version: 6.00 Build 0)  -->
<svg version="1.1" id="Capa_1" xmlns="http://www.w3.org/2000/svg" xmlns:xlink="http://www.w3.org/1999/xlink" x="0px" y="0px"
	 viewBox="0 0 1133.9 1133.9" style="enable-background:new 0 0 1133.9 1133.9;" xml:space="preserve">
<path id="delete_2_" d="M309.3,1048.1h492.6l61.9-583.8H250.2L309.3,1048.1z M693.3,215.8V104c0-18.4-14.8-33.3-33-33.3H451.1
	c-18.2,0-33,14.9-33,33.3v110c-70.7,8-144.2,23.6-217.5,50.2v102.7h708.6V261.5C909.2,261.5,822.7,231.3,693.3,215.8L693.3,215.8z
	 M627.5,209.7c-45.9-3.1-95.3-3.9-147.2-1v-59c0-9.2,7.3-16.6,16.4-16.6H611c9.2,0,16.6,7.5,16.6,16.6V209.7z"/>
</svg>
