<svg id="Capa_1" data-name="Capa 1" xmlns="http://www.w3.org/2000/svg" viewBox="0 0 1133.9 1133.9"><title>share-hover</title><path d="M859.38,699.83c-55.89,0-105.19,26.63-137.39,67.4L423.26,614.46c3.91-14.59,6.72-29.66,6.72-45.52,0-17.27-3.34-33.52-8-49.34L719.4,367.53c32,42.62,82.6,70.48,140,70.48a175.83,175.83,0,0,0,176-175.88c0-97.1-78.69-175.84-176-175.84-97.06,0-175.84,78.74-175.84,175.84,0,15.91,2.81,31,6.77,45.65L391.67,460.55C359.42,419.73,310,393,254.06,393,156.86,393,78.22,471.8,78.22,568.94A175.81,175.81,0,0,0,254.06,744.83c57.51,0,108-27.94,140.2-70.61L691.54,826.29c-4.66,15.77-8,32.16-8,49.47,0,97.15,78.78,175.88,175.84,175.88a175.91,175.91,0,1,0,0-351.81Z" style="fill:#e1261c"/></svg>