<svg id="Capa_1" data-name="Capa 1" xmlns="http://www.w3.org/2000/svg" viewBox="0 0 1431.15 372.13"><title>stars</title><polygon points="198 75.57 229.9 140.21 301.24 150.58 249.62 200.9 261.81 271.95 198 238.41 134.19 271.95 146.37 200.9 94.75 150.58 166.09 140.21 198 75.57" style="fill:#211915;stroke:#211915;stroke-miterlimit:10"/><polygon points="448.48 75.57 480.38 140.21 551.73 150.58 500.1 200.9 512.29 271.95 448.48 238.41 384.67 271.95 396.85 200.9 345.23 150.58 416.57 140.21 448.48 75.57" style="fill:#211915;stroke:#211915;stroke-miterlimit:10"/><polygon points="698.96 75.57 730.86 140.21 802.21 150.58 750.58 200.9 762.77 271.95 698.96 238.41 635.15 271.95 647.34 200.9 595.71 150.58 667.05 140.21 698.96 75.57" style="fill:#211915;stroke:#211915;stroke-miterlimit:10"/><polygon points="949.44 75.57 981.35 140.21 1052.69 150.58 1001.06 200.9 1013.25 271.95 949.44 238.41 885.63 271.95 897.82 200.9 846.19 150.58 917.53 140.21 949.44 75.57" style="fill:#211915;stroke:#211915;stroke-miterlimit:10"/><polygon points="1199.92 75.57 1231.83 140.21 1303.17 150.58 1251.54 200.9 1263.73 271.95 1199.92 238.41 1136.11 271.95 1148.3 200.9 1096.67 150.58 1168.02 140.21 1199.92 75.57" style="fill:#211915;stroke:#211915;stroke-miterlimit:10"/></svg>