<?xml version="1.0" encoding="utf-8"?>
<!-- Generator: Adobe Illustrator 20.1.0, SVG Export Plug-In . SVG Version: 6.00 Build 0)  -->
<svg version="1.1" id="Capa_1" xmlns="http://www.w3.org/2000/svg" xmlns:xlink="http://www.w3.org/1999/xlink" x="0px" y="0px"
	 viewBox="0 0 1133.9 1133.9" style="enable-background:new 0 0 1133.9 1133.9;" xml:space="preserve">
<style type="text/css">
	.st0{fill:#959595;}
</style>
<path id="heart-open_1_" class="st0" d="M345.3,269.5c43.1,0,86,17.5,117.2,51.9l111.8,123.4l111.8-123.4
	c31.2-34.4,74.1-51.9,117.2-51.9c23.8,0,47.6,5.3,69.5,16.1c1.6,0.7,3.4,1.4,4.9,2.1c40.3,18.4,70.6,50.6,85,90.9
	c13.8,38.5,11.5,79.9-6.5,116.8c-6.9,14.2-44.1,74.3-230.8,249.4c-57.2,53.6-112.7,103.3-151.2,137.2
	c-38.4-33.9-94-83.6-151.1-137.2C236.5,569.7,199.4,509.7,192.4,495.5c-17.9-36.9-20.2-78.4-6.4-116.8c14.5-40.3,44.7-72.6,85-90.9
	c1.3-0.6,2.6-1.1,3.9-1.7C297.1,275,321.2,269.5,345.3,269.5 M345.3,190.1c-35.6,0-71.2,8.1-103.1,23.5c-1.4,0.6-2.8,1.2-4.1,1.8
	c-60,27.3-105.1,75.8-126.9,136.4C90,410.6,93.6,474,121,530.3c16.4,33.7,72.8,108.3,247.9,272.6c58.7,55,115.6,105.9,153,138.9
	l52.6,46.3l52.5-46.3c37.5-33,94.4-83.9,153-138.9c96.6-90.7,218.1-211.5,247.9-272.6c27.5-56.3,30.9-119.7,9.8-178.5
	c-21.8-60.6-66.8-109-126.9-136.4c-2.1-0.9-3.9-1.7-5.4-2.3c-31.6-15-66.8-23-102-23c-67,0-131.1,28.4-176.1,78l-53,58.4l-52.9-58.4
	C476.4,218.5,412.2,190.1,345.3,190.1L345.3,190.1z"/>
</svg>
